{
  "accessors": [
    {
      "bufferView": 2,
      "componentType": 5126,
      "count": 4,
      "max": [
        1.869243860244751,
        1.94868004322052,
        0
      ],
      "min": [
        -1.256351113319397,
        -1.94868004322052,
        0
      ],
      "type": "VEC3"
    },
    {
      "bufferView": 2,
      "byteOffset": 48,
      "componentType": 5126,
      "count": 4,
      "max": [
        0,
        0,
        1
      ],
      "min": [
        0,
        0,
        1
      ],
      "type": "VEC3"
    },
    {
      "bufferView": 3,
      "componentType": 5126,
      "count": 4,
      "max": [
        1,
        0,
        0,
        1
      ],
      "min": [
        1,
        0,
        0,
        1
      ],
      "type": "VEC4"
    },
    {
      "bufferView": 1,
      "componentType": 5126,
      "count": 4,
      "max": [
        0.9974592924118042,
        1
      ],
      "min": [
        0.16564899682998657,
        0
      ],
      "type": "VEC2"
    },
    {
      "bufferView": 0,
      "componentType": 5125,
      "count": 6,
      "max": [
        3
      ],
      "min": [
        0
      ],
      "type": "SCALAR"
    },
    {
      "bufferView": 2,
      "byteOffset": 96,
      "componentType": 5126,
      "count": 4,
      "max": [
        1.8294671773910522,
        3.1076741218566895,
        0.015588048845529556
      ],
      "min": [
        -1.4994474649429321,
        -0.94948780536651611,
        -0.012219788506627083
      ],
      "type": "VEC3"
    },
    {
      "bufferView": 2,
      "byteOffset": 144,
      "componentType": 5126,
      "count": 4,
      "max": [
        -2.2065558269446228e-09,
        -0.0068538496270775795,
        -0.99997657537460327
      ],
      "min": [
        -2.2065558269446228e-09,
        -0.0068538496270775795,
        -0.99997657537460327
      ],
      "type": "VEC3"
    },
    {
      "bufferView": 3,
      "byteOffset": 64,
      "componentType": 5126,
      "count": 4,
      "max": [
        1,
        1.174763671757395e-11,
        -2.2065300697704515e-09,
        1
      ],
      "min": [
        1,
        -1.1288519598251501e-11,
        -2.2066879434845532e-09,
        1
      ],
      "type": "VEC4"
    },
    {
      "bufferView": 1,
      "byteOffset": 32,
      "componentType": 5126,
      "count": 4,
      "max": [
        0.82018280029296875,
        0.99950003623962402
      ],
      "min": [
        0.00050000002374872565,
        0.00050000002374872565
      ],
      "type": "VEC2"
    },
    {
      "bufferView": 0,
      "byteOffset": 24,
      "componentType": 5125,
      "count": 6,
      "max": [
        3
      ],
      "min": [
        0
      ],
      "type": "SCALAR"
    },
    {
      "bufferView": 2,
      "byteOffset": 192,
      "componentType": 5126,
      "count": 4,
      "max": [
        1.7205747365951538,
        3.0138952732086182,
        0.029333531856536865
      ],
      "min": [
        -1.4050203561782837,
        -0.88337337970733643,
        0.0026215994730591774
      ],
      "type": "VEC3"
    },
    {
      "bufferView": 2,
      "byteOffset": 240,
      "componentType": 5126,
      "count": 4,
      "max": [
        2.6758695259587739e-09,
        -0.0068538505584001541,
        -0.99997657537460327
      ],
      "min": [
        2.6758695259587739e-09,
        -0.0068538505584001541,
        -0.99997657537460327
      ],
      "type": "VEC3"
    },
    {
      "bufferView": 3,
      "byteOffset": 128,
      "componentType": 5126,
      "count": 4,
      "max": [
        1,
        1.0163149835595853e-11,
        2.6760023086325191e-09,
        1
      ],
      "min": [
        1,
        -1.0250369997244491e-11,
        2.6758621984868114e-09,
        1
      ],
      "type": "VEC4"
    },
    {
      "bufferView": 1,
      "byteOffset": 64,
      "componentType": 5126,
      "count": 4,
      "max": [
        0.80169439315795898,
        0.99950003623962402
      ],
      "min": [
        0.00050000002374872565,
        0.00050000002374872565
      ],
      "type": "VEC2"
    },
    {
      "bufferView": 0,
      "byteOffset": 48,
      "componentType": 5125,
      "count": 6,
      "max": [
        3
      ],
      "min": [
        0
      ],
      "type": "SCALAR"
    },
    {
      "bufferView": 2,
      "byteOffset": 288,
      "componentType": 5126,
      "count": 29271,
      "max": [
        1.9563851356506348,
        0.025391124188899994,
        2.679901123046875
      ],
      "min": [
        -1.9544714689254761,
        -0.55303430557250977,
        -2.3674106597900391
      ],
      "type": "VEC3"
    },
    {
      "bufferView": 2,
      "byteOffset": 351540,
      "componentType": 5126,
      "count": 29271,
      "max": [
        1,
        1,
        1
      ],
      "min": [
        -1,
        -0.99999892711639404,
        -1
      ],
      "type": "VEC3"
    },
    {
      "bufferView": 3,
      "byteOffset": 192,
      "componentType": 5126,
      "count": 29271,
      "max": [
        1,
        0.9999997615814209,
        1,
        1
      ],
      "min": [
        -1,
        -0.99988788366317749,
        -1,
        -1
      ],
      "type": "VEC4"
    },
    {
      "bufferView": 1,
      "byteOffset": 96,
      "componentType": 5126,
      "count": 29271,
      "max": [
        0.9907575249671936,
        0.96282303333282471
      ],
      "min": [
        0,
        0.0049645267426967621
      ],
      "type": "VEC2"
    },
    {
      "bufferView": 0,
      "byteOffset": 72,
      "componentType": 5125,
      "count": 158712,
      "max": [
        29270
      ],
      "min": [
        0
      ],
      "type": "SCALAR"
    }
  ],
  "asset": {
    "extras": {
      "author": "SebastianSosnowski (https://sketchfab.com/SebastianSosnowski)",
      "license": "CC-BY-4.0 (http://creativecommons.org/licenses/by/4.0/)",
      "source": "https://sketchfab.com/3d-models/painting-by-zdzislaw-beksinski-3-11c1da576435418b800d50a942b77a6b",
      "title": "Painting by Zdzislaw Beksinski (3)"
    },
    "generator": "Sketchfab-4.34.0",
    "version": "2.0"
  },
  "bufferViews": [
    {
      "buffer": 0,
      "byteLength": 634920,
      "byteOffset": 0,
      "name": "floatBufferViews",
      "target": 34963
    },
    {
      "buffer": 0,
      "byteLength": 234264,
      "byteOffset": 634920,
      "byteStride": 8,
      "name": "floatBufferViews",
      "target": 34962
    },
    {
      "buffer": 0,
      "byteLength": 702792,
      "byteOffset": 869184,
      "byteStride": 12,
      "name": "floatBufferViews",
      "target": 34962
    },
    {
      "buffer": 0,
      "byteLength": 468528,
      "byteOffset": 1571976,
      "byteStride": 16,
      "name": "floatBufferViews",
      "target": 34962
    }
  ],
  "buffers": [
    {
      "byteLength": 2040504,
      "uri": "scene.bin"
    }
  ],
  "images": [
    {
      "uri": "textures/1_-_painting_metallicRoughness.png"
    },
    {
      "uri": "textures/1_-_painting_baseColor.jpeg"
    },
    {
      "uri": "textures/1_-_painting_normal.png"
    },
    {
      "uri": "textures/default_metallicRoughness.png"
    },
    {
      "uri": "textures/default_baseColor.jpeg"
    },
    {
      "uri": "textures/default_normal.png"
    },
    {
      "uri": "textures/Glass_metallicRoughness.png"
    },
    {
      "uri": "textures/Glass_baseColor.png"
    },
    {
      "uri": "textures/Glass_normal.png"
    },
    {
      "uri": "textures/3_-_Back_baseColor.jpeg"
    },
    {
      "uri": "textures/3_-_Back_normal.png"
    },
    {
      "uri": "textures/3_-_Back_metallicRoughness.png"
    }
  ],
  "materials": [
    {
      "doubleSided": false,
      "name": "1_-_painting",
      "normalTexture": {
        "index": 2,
        "scale": 0.59317835370000005,
        "texCoord": 0
      },
      "occlusionTexture": {
        "index": 0,
        "strength": 1,
        "texCoord": 0
      },
      "pbrMetallicRoughness": {
        "baseColorFactor": [
          1,
          1,
          1,
          1
        ],
        "baseColorTexture": {
          "index": 1,
          "texCoord": 0
        },
        "metallicFactor": 0,
        "metallicRoughnessTexture": {
          "index": 0,
          "texCoord": 0
        },
        "roughnessFactor": 0.72732469509999997
      }
    },
    {
      "doubleSided": true,
      "name": "3_-_Back",
      "normalTexture": {
        "index": 10,
        "scale": 1,
        "texCoord": 0
      },
      "pbrMetallicRoughness": {
        "baseColorFactor": [
          1,
          1,
          1,
          1
        ],
        "baseColorTexture": {
          "index": 9,
          "texCoord": 0
        },
        "metallicFactor": 0,
        "metallicRoughnessTexture": {
          "index": 11,
          "texCoord": 0
        },
        "roughnessFactor": 1
      }
    },
    {
      "alphaMode": "BLEND",
      "doubleSided": true,
      "emissiveFactor": [
        0,
        0,
        0
      ],
      "name": "Glass",
      "normalTexture": {
        "index": 8,
        "scale": 1,
        "texCoord": 0
      },
      "pbrMetallicRoughness": {
        "baseColorFactor": [
          0.60537347559999999,
          0.60537347559999999,
          0.60537347559999999,
          0.69683689019999995
        ],
        "baseColorTexture": {
          "index": 7,
          "texCoord": 0
        },
        "metallicFactor": 0.19073932930000001,
        "metallicRoughnessTexture": {
          "index": 6,
          "texCoord": 0
        },
        "roughnessFactor": 0.2334222561
      }
    },
    {
      "doubleSided": false,
      "name": "default",
      "normalTexture": {
        "index": 5,
        "scale": 1,
        "texCoord": 0
      },
      "occlusionTexture": {
        "index": 3,
        "strength": 1,
        "texCoord": 0
      },
      "pbrMetallicRoughness": {
        "baseColorFactor": [
          1,
          1,
          1,
          1
        ],
        "baseColorTexture": {
          "index": 4,
          "texCoord": 0
        },
        "metallicFactor": 0,
        "metallicRoughnessTexture": {
          "index": 3,
          "texCoord": 0
        },
        "roughnessFactor": 1
      }
    }
  ],
  "meshes": [
    {
      "name": "Plotno_1 - painting_0",
      "primitives": [
        {
          "attributes": {
            "NORMAL": 1,
            "POSITION": 0,
            "TANGENT": 2,
            "TEXCOORD_0": 3
          },
          "indices": 4,
          "material": 0,
          "mode": 4
        }
      ]
    },
    {
      "name": "Maska_3 - Back_0",
      "primitives": [
        {
          "attributes": {
            "NORMAL": 6,
            "POSITION": 5,
            "TANGENT": 7,
            "TEXCOORD_0": 8
          },
          "indices": 9,
          "material": 1,
          "mode": 4
        }
      ]
    },
    {
      "name": "Szyba_Glass_0",
      "primitives": [
        {
          "attributes": {
            "NORMAL": 11,
            "POSITION": 10,
            "TANGENT": 12,
            "TEXCOORD_0": 13
          },
          "indices": 14,
          "material": 2,
          "mode": 4
        }
      ]
    },
    {
      "name": "Rama01_LP_default_0",
      "primitives": [
        {
          "attributes": {
            "NORMAL": 16,
            "POSITION": 15,
            "TANGENT": 17,
            "TEXCOORD_0": 18
          },
          "indices": 19,
          "material": 3,
          "mode": 4
        }
      ]
    }
  ],
  "nodes": [
    {
      "children": [
        1
      ],
      "name": "RootNode (gltf orientation matrix)",
      "rotation": [
        -0.70710678118654746,
        -0,
        -0,
        0.70710678118654757
      ]
    },
    {
      "children": [
        2
      ],
      "name": "RootNode (model correction matrix)"
    },
    {
      "children": [
        3
      ],
      "matrix": [
        1,
        0,
        0,
        0,
        0,
        0,
        1,
        0,
        0,
        -1,
        0,
        0,
        0,
        0,
        0,
        1
      ],
      "name": "e2a41e49ddb244a9b3b0fc04f9aa4d86.fbx"
    },
    {
      "children": [
        4,
        7,
        9,
        11
      ],
      "name": "RootNode"
    },
    {
      "children": [
        5
      ],
      "matrix": [
        1,
        0,
        0,
        0,
        0,
        2.2204460492503131e-16,
        -1,
        0,
        0,
        1,
        2.2204460492503131e-16,
        0,
        0,
        -2.1855694337657994e-12,
        0,
        1
      ],
      "name": "Plotno"
    },
    {
      "children": [
        6
      ],
      "matrix": [
        1,
        -0,
        0,
        0,
        0,
        6.123233995736766e-17,
        1,
        0,
        -0,
        -1,
        6.123233995736766e-17,
        0,
        -0.306446373462677,
        4.9948692321777344e-05,
        0,
        1
      ],
      "name": ""
    },
    {
      "mesh": 0,
      "name": "Plotno_1 - painting_0"
    },
    {
      "children": [
        8
      ],
      "matrix": [
        -0.999999999999996,
        -8.9577356983535702e-11,
        8.7422776695940424e-08,
        0,
        6.8875704281709319e-10,
        -0.99997651215761474,
        0.0068538407547540257,
        0,
        8.7420109374600516e-08,
        0.0068538407547540604,
        0.99997651215761107,
        0,
        0.15777701139450073,
        1.0651266574859619,
        -0.039984028786420822,
        1
      ],
      "name": "Maska"
    },
    {
      "mesh": 1,
      "name": "Maska_3 - Back_0"
    },
    {
      "children": [
        10
      ],
      "matrix": [
        0.99999999999995437,
        -8.9577532891308474e-11,
        3.0199160505615952e-07,
        0,
        1.9802269414191296e-09,
        -0.99997651215761518,
        -0.0068538407547536484,
        0,
        3.01985125875084e-07,
        0.0068538407547539346,
        -0.99997651215756966,
        0,
        -0.1577771008014679,
        1.0651266574859619,
        0.035932313650846481,
        1
      ],
      "name": "Szyba"
    },
    {
      "mesh": 2,
      "name": "Szyba_Glass_0"
    },
    {
      "children": [
        12
      ],
      "matrix": [
        1,
        0,
        0,
        0,
        0,
        2.2204460492503131e-16,
        -1,
        0,
        0,
        1,
        2.2204460492503131e-16,
        0,
        0,
        0,
        0,
        1
      ],
      "name": "Rama01_LP"
    },
    {
      "mesh": 3,
      "name": "Rama01_LP_default_0"
    }
  ],
  "samplers": [
    {
      "magFilter": 9729,
      "minFilter": 9987,
      "wrapS": 10497,
      "wrapT": 10497
    }
  ],
  "scene": 0,
  "scenes": [
    {
      "name": "OSG_Scene",
      "nodes": [
        0
      ]
    }
  ],
  "textures": [
    {
      "sampler": 0,
      "source": 0
    },
    {
      "sampler": 0,
      "source": 1
    },
    {
      "sampler": 0,
      "source": 2
    },
    {
      "sampler": 0,
      "source": 3
    },
    {
      "sampler": 0,
      "source": 4
    },
    {
      "sampler": 0,
      "source": 5
    },
    {
      "sampler": 0,
      "source": 6
    },
    {
      "sampler": 0,
      "source": 7
    },
    {
      "sampler": 0,
      "source": 8
    },
    {
      "sampler": 0,
      "source": 9
    },
    {
      "sampler": 0,
      "source": 10
    },
    {
      "sampler": 0,
      "source": 11
    }
  ]
}

