{
  "accessors": [
    {
      "bufferView": 2,
      "componentType": 5126,
      "count": 27072,
      "max": [
        41.026802062988281,
        2.9330997467041016,
        115.16570281982422
      ],
      "min": [
        15.122500419616699,
        0,
        89.189804077148438
      ],
      "type": "VEC3"
    },
    {
      "bufferView": 2,
      "byteOffset": 324864,
      "componentType": 5126,
      "count": 27072,
      "max": [
        0.99999737739562988,
        0.99999988079071045,
        0.99999737739562988
      ],
      "min": [
        -0.99999737739562988,
        -1,
        -0.99999737739562988
      ],
      "type": "VEC3"
    },
    {
      "bufferView": 0,
      "componentType": 5125,
      "count": 162432,
      "max": [
        27071
      ],
      "min": [
        0
      ],
      "type": "SCALAR"
    },
    {
      "bufferView": 2,
      "byteOffset": 649728,
      "componentType": 5126,
      "count": 7056,
      "max": [
        140.22599792480469,
        8.2421998977661133,
        251.80360412597656
      ],
      "min": [
        0,
        2.8818998336791992,
        0
      ],
      "type": "VEC3"
    },
    {
      "bufferView": 2,
      "byteOffset": 734400,
      "componentType": 5126,
      "count": 7056,
      "max": [
        1,
        1,
        1
      ],
      "min": [
        -1,
        -1,
        -1
      ],
      "type": "VEC3"
    },
    {
      "bufferView": 3,
      "componentType": 5126,
      "count": 7056,
      "max": [
        1,
        1,
        1,
        1
      ],
      "min": [
        -1,
        -1,
        -1,
        -1
      ],
      "type": "VEC4"
    },
    {
      "bufferView": 1,
      "componentType": 5126,
      "count": 7056,
      "max": [
        1,
        1
      ],
      "min": [
        0,
        0
      ],
      "type": "VEC2"
    },
    {
      "bufferView": 0,
      "byteOffset": 649728,
      "componentType": 5125,
      "count": 36288,
      "max": [
        7055
      ],
      "min": [
        0
      ],
      "type": "SCALAR"
    },
    {
      "bufferView": 2,
      "byteOffset": 819072,
      "componentType": 5126,
      "count": 1524,
      "max": [
        139.43620300292969,
        2.9194998741149902,
        196.2318115234375
      ],
      "min": [
        13.805700302124023,
        0.74179983139038086,
        13.043403625488281
      ],
      "type": "VEC3"
    },
    {
      "bufferView": 2,
      "byteOffset": 837360,
      "componentType": 5126,
      "count": 1524,
      "max": [
        0.9999459981918335,
        1,
        0.9510796070098877
      ],
      "min": [
        -0.97898769378662109,
        -1,
        -0.77128458023071289
      ],
      "type": "VEC3"
    },
    {
      "bufferView": 3,
      "byteOffset": 112896,
      "componentType": 5126,
      "count": 1524,
      "max": [
        1,
        0.98069608211517334,
        0.58472985029220581,
        1
      ],
      "min": [
        -0.99998223781585693,
        -0.9999459981918335,
        -0.54066199064254761,
        -1
      ],
      "type": "VEC4"
    },
    {
      "bufferView": 1,
      "byteOffset": 56448,
      "componentType": 5126,
      "count": 1524,
      "max": [
        195.99949645996094,
        1
      ],
      "min": [
        -232.92860412597656,
        -281.95498657226562
      ],
      "type": "VEC2"
    },
    {
      "bufferView": 0,
      "byteOffset": 794880,
      "componentType": 5125,
      "count": 4728,
      "max": [
        1523
      ],
      "min": [
        0
      ],
      "type": "SCALAR"
    },
    {
      "bufferView": 2,
      "byteOffset": 855648,
      "componentType": 5126,
      "count": 2770,
      "max": [
        142.26130676269531,
        4.4211997985839844,
        196.2318115234375
      ],
      "min": [
        13.805700302124023,
        0.95679998397827148,
        120.59850311279297
      ],
      "type": "VEC3"
    },
    {
      "bufferView": 2,
      "byteOffset": 888888,
      "componentType": 5126,
      "count": 2770,
      "max": [
        1,
        1,
        1
      ],
      "min": [
        -1,
        -1,
        -1
      ],
      "type": "VEC3"
    },
    {
      "bufferView": 3,
      "byteOffset": 137280,
      "componentType": 5126,
      "count": 2770,
      "max": [
        1,
        1,
        0.99968487024307251,
        1
      ],
      "min": [
        -1,
        -1,
        -0.99968481063842773,
        -1
      ],
      "type": "VEC4"
    },
    {
      "bufferView": 1,
      "byteOffset": 68640,
      "componentType": 5126,
      "count": 2770,
      "max": [
        195.99949645996094,
        1
      ],
      "min": [
        -232.92860412597656,
        -259.10369873046875
      ],
      "type": "VEC2"
    },
    {
      "bufferView": 0,
      "byteOffset": 813792,
      "componentType": 5125,
      "count": 15324,
      "max": [
        2769
      ],
      "min": [
        0
      ],
      "type": "SCALAR"
    },
    {
      "bufferView": 2,
      "byteOffset": 922128,
      "componentType": 5126,
      "count": 2770,
      "max": [
        142.26130676269531,
        4.4211997985839844,
        93.479606628417969
      ],
      "min": [
        13.805700302124023,
        0.95679998397827148,
        17.846305847167969
      ],
      "type": "VEC3"
    },
    {
      "bufferView": 2,
      "byteOffset": 955368,
      "componentType": 5126,
      "count": 2770,
      "max": [
        1,
        1,
        1
      ],
      "min": [
        -1,
        -1,
        -1
      ],
      "type": "VEC3"
    },
    {
      "bufferView": 3,
      "byteOffset": 181600,
      "componentType": 5126,
      "count": 2770,
      "max": [
        1,
        1,
        0.99968487024307251,
        1
      ],
      "min": [
        -1,
        -1,
        -0.99968487024307251,
        -1
      ],
      "type": "VEC4"
    },
    {
      "bufferView": 1,
      "byteOffset": 90800,
      "componentType": 5126,
      "count": 2770,
      "max": [
        195.99949645996094,
        1
      ],
      "min": [
        -232.92860412597656,
        -259.10369873046875
      ],
      "type": "VEC2"
    },
    {
      "bufferView": 0,
      "byteOffset": 875088,
      "componentType": 5125,
      "count": 15324,
      "max": [
        2769
      ],
      "min": [
        0
      ],
      "type": "SCALAR"
    }
  ],
  "asset": {
    "extras": {
      "author": "photonmammoth (https://sketchfab.com/photonmammoth)",
      "license": "CC-BY-4.0 (http://creativecommons.org/licenses/by/4.0/)",
      "source": "https://sketchfab.com/3d-models/old-wood-door-2f1197a2c9f5405dabcc731d84036951",
      "title": "Old Wood Door"
    },
    "generator": "Sketchfab-6.44.0",
    "version": "2.0"
  },
  "bufferViews": [
    {
      "buffer": 0,
      "byteLength": 936384,
      "byteOffset": 0,
      "name": "floatBufferViews",
      "target": 34963
    },
    {
      "buffer": 0,
      "byteLength": 112960,
      "byteOffset": 936384,
      "byteStride": 8,
      "name": "floatBufferViews",
      "target": 34962
    },
    {
      "buffer": 0,
      "byteLength": 988608,
      "byteOffset": 1049344,
      "byteStride": 12,
      "name": "floatBufferViews",
      "target": 34962
    },
    {
      "buffer": 0,
      "byteLength": 225920,
      "byteOffset": 2037952,
      "byteStride": 16,
      "name": "floatBufferViews",
      "target": 34962
    }
  ],
  "buffers": [
    {
      "byteLength": 2263872,
      "uri": "scene.bin"
    }
  ],
  "materials": [
    {
      "doubleSided": true,
      "emissiveFactor": [
        0,
        0,
        0
      ],
      "name": "wire_008008136",
      "pbrMetallicRoughness": {
        "baseColorFactor": [
          1,
          1,
          1,
          1
        ],
        "metallicFactor": 0,
        "roughnessFactor": 0.59999999999999998
      }
    },
    {
      "doubleSided": true,
      "emissiveFactor": [
        0,
        0,
        0
      ],
      "name": "wire_057008136",
      "pbrMetallicRoughness": {
        "baseColorFactor": [
          1,
          1,
          1,
          1
        ],
        "metallicFactor": 0,
        "roughnessFactor": 0.59999999999999998
      }
    },
    {
      "doubleSided": true,
      "emissiveFactor": [
        0,
        0,
        0
      ],
      "name": "wire_225087143",
      "pbrMetallicRoughness": {
        "baseColorFactor": [
          1,
          1,
          1,
          1
        ],
        "metallicFactor": 0,
        "roughnessFactor": 0.59999999999999998
      }
    }
  ],
  "meshes": [
    {
      "primitives": [
        {
          "attributes": {
            "NORMAL": 1,
            "POSITION": 0
          },
          "indices": 2,
          "material": 0,
          "mode": 4
        }
      ]
    },
    {
      "primitives": [
        {
          "attributes": {
            "NORMAL": 4,
            "POSITION": 3,
            "TANGENT": 5,
            "TEXCOORD_0": 6
          },
          "indices": 7,
          "material": 2,
          "mode": 4
        }
      ]
    },
    {
      "primitives": [
        {
          "attributes": {
            "NORMAL": 9,
            "POSITION": 8,
            "TANGENT": 10,
            "TEXCOORD_0": 11
          },
          "indices": 12,
          "material": 1,
          "mode": 4
        }
      ]
    },
    {
      "primitives": [
        {
          "attributes": {
            "NORMAL": 14,
            "POSITION": 13,
            "TANGENT": 15,
            "TEXCOORD_0": 16
          },
          "indices": 17,
          "material": 1,
          "mode": 4
        }
      ]
    },
    {
      "primitives": [
        {
          "attributes": {
            "NORMAL": 19,
            "POSITION": 18,
            "TANGENT": 20,
            "TEXCOORD_0": 21
          },
          "indices": 22,
          "material": 1,
          "mode": 4
        }
      ]
    }
  ],
  "nodes": [
    {
      "children": [
        1
      ],
      "name": "RootNode (gltf orientation matrix)",
      "rotation": [
        -0.70710678118654746,
        -0,
        -0,
        0.70710678118654757
      ]
    },
    {
      "children": [
        2
      ],
      "name": "RootNode (model correction matrix)"
    },
    {
      "children": [
        3
      ],
      "matrix": [
        1,
        0,
        0,
        0,
        0,
        1,
        0,
        0,
        0,
        0,
        1,
        0,
        -28.155000686645508,
        -7.8818998336791992,
        -138.1300048828125,
        1
      ],
      "name": "doorvariedwood.obj.cleaner.gles"
    },
    {
      "children": [
        4,
        5,
        6,
        7,
        8
      ],
      "name": ""
    },
    {
      "mesh": 0,
      "name": ""
    },
    {
      "mesh": 1,
      "name": ""
    },
    {
      "mesh": 2,
      "name": ""
    },
    {
      "mesh": 3,
      "name": ""
    },
    {
      "mesh": 4,
      "name": ""
    }
  ],
  "scene": 0,
  "scenes": [
    {
      "name": "OSG_Scene",
      "nodes": [
        0
      ]
    }
  ]
}

